<?xml version="1.0" standalone="no"?>
<!DOCTYPE svg PUBLIC "-//W3C//DTD SVG 20010904//EN"
 "http://www.w3.org/TR/2001/REC-SVG-20010904/DTD/svg10.dtd">
<svg version="1.0" xmlns="http://www.w3.org/2000/svg"
 width="1024.000000pt" height="1024.000000pt" viewBox="0 0 1024.000000 1024.000000"
 preserveAspectRatio="xMidYMid meet">

<g transform="translate(0.000000,1024.000000) scale(0.100000,-0.100000)"
fill="#000000" stroke="none">
<path d="M0 5120 l0 -5120 5120 0 5120 0 0 5120 0 5120 -5120 0 -5120 0 0
-5120z m4615 1047 c146 -41 293 -146 374 -266 108 -161 151 -388 151 -802 0
-320 -27 -493 -99 -638 -89 -181 -222 -286 -442 -352 -69 -21 -97 -23 -436
-27 l-363 -4 -1 44 c0 44 0 2060 1 2066 0 2 170 2 378 0 315 -4 387 -7 437
-21z m1480 13 c141 -23 318 -147 378 -266 58 -115 75 -302 36 -416 -35 -106
-130 -226 -204 -260 -35 -16 -31 -23 18 -37 115 -35 225 -163 263 -306 17 -61
18 -283 3 -357 -46 -218 -237 -398 -469 -442 -65 -13 -156 -16 -426 -16 l-344
0 0 1055 0 1055 343 0 c188 0 369 -4 402 -10z m-2634 -132 l90 -91 -421 -421
-420 -422 423 -421 423 -422 -93 -93 -92 -92 -197 194 c-109 107 -342 341
-518 519 l-321 323 515 509 c283 280 516 509 518 509 1 0 43 -41 93 -92z
m3944 -418 l510 -510 -518 -517 -518 -518 -89 95 -89 95 356 360 c196 198 384
388 418 421 l63 62 -75 73 c-41 41 -228 231 -415 422 l-341 348 89 90 c49 49
91 89 94 89 3 0 234 -229 515 -510z"/>
<path d="M4165 5862 c-16 -4 -30 -13 -29 -20 1 -6 2 -336 3 -733 l1 -721 118
7 c269 16 385 72 462 225 64 127 87 335 70 651 -11 215 -35 346 -75 414 -36
62 -106 119 -183 150 -59 24 -83 28 -202 31 -74 1 -148 0 -165 -4z"/>
<path d="M5690 5619 l0 -261 178 7 c193 8 226 16 280 68 57 54 76 102 76 187
0 111 -47 187 -139 226 -37 15 -214 33 -342 34 l-53 0 0 -261z"/>
<path d="M5690 4725 l0 -325 166 0 c195 0 255 13 316 68 66 60 90 120 96 238
3 79 1 113 -13 154 -19 58 -71 122 -118 147 -47 24 -191 43 -324 43 l-123 0 0
-325z"/>
</g>
</svg>
